<?xml version="1.0" encoding="UTF-8" standalone="no"?>
<!-- Created with Inkscape (http://www.inkscape.org/) -->

<svg
   xmlns:dc="http://purl.org/dc/elements/1.1/"
   xmlns:cc="http://creativecommons.org/ns#"
   xmlns:rdf="http://www.w3.org/1999/02/22-rdf-syntax-ns#"
   xmlns:svg="http://www.w3.org/2000/svg"
   xmlns="http://www.w3.org/2000/svg"
   xmlns:sodipodi="http://sodipodi.sourceforge.net/DTD/sodipodi-0.dtd"
   xmlns:inkscape="http://www.inkscape.org/namespaces/inkscape"
   width="165.68971mm"
   height="155.0706mm"
   viewBox="-0.4 0 165.68971 155.0706"
   version="1.1"
   id="svg8"
   inkscape:version="0.92.2 (5c3e80d, 2017-08-06)"
   sodipodi:docname="drawing.svg">
  <defs
     id="defs2" />
  <sodipodi:namedview
     id="base"
     pagecolor="#ffffff"
     bordercolor="#666666"
     borderopacity="1.0"
     inkscape:pageopacity="0"
     inkscape:pageshadow="2"
     inkscape:zoom="0.7"
     inkscape:cx="0.52507853"
     inkscape:cy="484.20046"
     inkscape:document-units="mm"
     inkscape:current-layer="layer1"
     showgrid="false"
     fit-margin-top="0"
     fit-margin-left="0"
     fit-margin-right="0"
     fit-margin-bottom="0"
     viewbox-x="-0.4"
     inkscape:window-width="3840"
     inkscape:window-height="2035"
     inkscape:window-x="1009"
     inkscape:window-y="-13"
     inkscape:window-maximized="1" />
  <metadata
     id="metadata5">
    <rdf:RDF>
      <cc:Work
         rdf:about="">
        <dc:format>image/svg+xml</dc:format>
        <dc:type
           rdf:resource="http://purl.org/dc/dcmitype/StillImage" />
        <dc:title></dc:title>
      </cc:Work>
    </rdf:RDF>
  </metadata>
  <g
     inkscape:label="Layer 1"
     inkscape:groupmode="layer"
     id="layer1"
     transform="translate(-77.05454,-157.74796)">
    <path
       style="fill:#000000;stroke-width:0.26458332"
       d=""
       id="path3746"
       inkscape:connector-curvature="0" />
    <path
       style="fill:#000000;stroke-width:0.26458332"
       d=""
       id="path3744"
       inkscape:connector-curvature="0" />
    <path
       style="fill:#ffffff;stroke-width:0.26458335"
       d="m 170.55173,312.52562 -2.47945,-0.22037 -3.34139,-0.80603 -3.34139,-0.80604 -1.98437,-0.69362 -1.98438,-0.69363 -2.38125,-0.9263 -2.38125,-0.92629 -3.04271,-1.46327 -3.0427,-1.46326 -2.91042,-1.63097 -2.91042,-1.63098 -1.5875,-1.00442 -1.5875,-1.00441 -1.45521,-0.94739 -1.4552,-0.94739 -2.77813,-1.97241 -2.77812,-1.9724 -1.05379,-0.81603 -1.05379,-0.81603 -3.04726,-2.4977 -3.04725,-2.49769 -0.13229,-0.14843 -0.13229,-0.14843 -1.98438,-1.70738 -1.98437,-1.70738 -5.17318,-5.1715 -5.17318,-5.17149 -3.05062,-3.57188 -3.05063,-3.57187 -1.53117,-1.98438 -1.53118,-1.98437 -1.3808,-1.85209 -1.38079,-1.85208 -1.19425,-1.71979 -1.19424,-1.71979 -1.99827,-3.19864 -1.99828,-3.19864 -0.86371,-1.56386 -0.86371,-1.56386 -1.56401,-3.04271 -1.56401,-3.04271 -0.48157,-1.19062 -0.48157,-1.19063 -0.84776,-2.11667 -0.84777,-2.11666 -0.88589,-2.73676 -0.88588,-2.73676 -0.68178,-3.30879 -0.68177,-3.30879 -0.15718,-2.81799 -0.15718,-2.818 0.44181,-2.33548 0.44181,-2.33549 0.62971,-1.42389 0.62971,-1.42388 2.3345,-2.44826 2.33451,-2.44825 1.19062,-1.21509 1.19063,-1.21508 1.87119,-1.59294 1.8712,-1.59294 1.4835,-0.84877 1.4835,-0.84878 1.4078,-0.42547 1.40781,-0.42548 1.4552,-0.006 1.45521,-0.006 1.37486,0.33077 1.37485,0.33077 1.72679,0.91693 1.72678,0.91692 2.16521,2.03666 2.16521,2.03665 1.36977,1.71979 1.36977,1.7198 1.33967,1.88084 1.33967,1.88085 1.07296,1.95561 1.07295,1.95561 0.67249,1.78744 0.67248,1.78745 0.16605,1.78657 0.16604,1.78658 -0.32103,1.58536 -0.32103,1.58535 -0.9312,1.68336 -0.93121,1.68335 -3.24107,3.35213 -3.24107,3.35213 -0.46164,0.89271 -0.46164,0.89271 -0.008,1.48014 -0.008,1.48014 0.42952,1.42504 0.42953,1.42504 1.07526,1.99347 1.07527,1.99348 1.44921,2.15557 1.44922,2.15558 1.64628,1.99562 1.64629,1.99562 0.52916,0.67271 0.52917,0.67271 3.75806,4.08669 3.75805,4.08668 4.17945,3.97983 4.17944,3.97983 2.31927,1.9845 2.31928,1.9845 1.51718,1.13392 1.51719,1.13391 0.92604,0.7021 0.92604,0.70209 1.85208,1.11764 1.85209,1.11764 1.61727,0.77563 1.61727,0.77564 1.65576,0.42418 1.65575,0.42418 0.95116,-0.17843 0.95117,-0.17844 0.80289,-0.4127 0.80289,-0.41268 2.91042,-2.81547 2.91042,-2.81547 1.10175,-0.85443 1.10175,-0.85444 1.54409,-0.72337 1.54407,-0.72337 h 2.64584 2.64583 l 1.45521,0.49332 1.45521,0.49333 2.04858,1.02913 2.04858,1.02914 2.18475,1.50087 2.18476,1.50088 1.99299,1.64787 1.99299,1.64786 1.88321,1.98254 1.88322,1.98254 0.17652,0.55616 0.17652,0.55615 h 0.21861 0.21862 l 0.65433,1.65365 0.65433,1.65364 0.32849,1.39844 0.32848,1.39842 -0.17865,1.19136 -0.17866,1.19136 -0.5126,1.4899 -0.5126,1.48989 -0.85014,1.34427 -0.85014,1.34428 -1.77158,2.11667 -1.77158,2.11666 -2.73493,2.54483 -2.73493,2.54483 -0.79375,0.64441 -0.79375,0.64441 -1.5875,0.69757 -1.5875,0.69757 -2.74002,0.28038 -2.74001,0.28038 -0.43499,-0.0364 -0.43499,-0.0364 -2.47944,-0.22037 z m 33.42173,-17.05573 0.17723,-0.94469 -0.009,-2.42874 -0.009,-2.42875 -0.5556,-1.98437 -0.55559,-1.98438 -0.12371,-0.52917 -0.12371,-0.52916 0.9943,-0.66146 0.9943,-0.66146 2.60977,-2.02512 2.60976,-2.02512 2.09312,-1.90223 2.09312,-1.90222 2.47977,-2.95182 2.47977,-2.95182 1.38362,-1.95249 1.38362,-1.95248 0.47253,-0.82564 0.47252,-0.82564 1.13688,-1.98438 1.13688,-1.98437 1.12407,-2.39837 1.12407,-2.39837 0.96219,-2.761 0.96219,-2.76101 0.7715,-3.04271 0.77149,-3.04271 0.26634,-1.85208 0.26634,-1.85209 0.005,-0.42362 0.005,-0.42363 -3.50573,-2.06071 -3.50573,-2.06072 -2.71198,-1.61463 -2.71198,-1.61462 v -0.16278 -0.16279 l 2.18281,-1.27745 2.18282,-1.27744 3.96875,-2.35547 3.96875,-2.35546 0.0825,-0.0813 0.0826,-0.0813 -0.30006,-2.2105 -0.30005,-2.2105 -0.7724,-3.05597 -0.7724,-3.05597 -0.9428,-2.76486 -0.94276,-2.76487 -2.03605,-4.09836 -2.03606,-4.09835 -1.86548,-2.78594 -1.86548,-2.78593 -1.28402,-1.58238 -1.28403,-1.58237 -1.74528,-1.95883 -1.74529,-1.95883 -2.26602,-2.00992 -2.26601,-2.00992 -0.65043,-0.52917 -0.65043,-0.52917 -1.44918,-1.08964 -1.44918,-1.08965 -1.85208,-1.18726 -1.85209,-1.18727 -2.11666,-1.15656 -2.11667,-1.15656 -1.98437,-0.88129 -1.98438,-0.88129 -2.51354,-0.92409 -2.51354,-0.9241 -2.91042,-0.7628 -2.91042,-0.76281 -2.75699,-0.46842 -2.75699,-0.46842 -0.23113,0.38466 -0.23113,0.38467 -2.64971,4.49792 -2.6497,4.49791 -0.83423,1.38906 -0.83421,1.38907 -0.14254,-0.01 -0.14253,-0.01 -0.68329,-1.11482 -0.68329,-1.11482 -1.56567,-2.63842 -1.56567,-2.63843 -0.13229,-0.27819 -0.13229,-0.27819 -1.32234,-2.20201 -1.32233,-2.202 -1.3235,0.1705 -1.3235,0.1705 -2.77813,0.54525 -2.77812,0.54525 -3.96526,1.30983 -3.96525,1.30983 -3.70766,1.81164 -3.70766,1.81164 -1.98438,1.26871 -1.98437,1.26871 -2.38125,1.76114 -2.38125,1.76114 -1.85209,1.67992 -1.85208,1.67991 -1.82893,1.8633 -1.82892,1.8633 -2.0671,2.64584 -2.06709,2.64583 -0.48434,0.63134 -0.48434,0.63134 -2.77882,-2.77881 -2.77881,-2.77882 -1.08681,-0.68608 -1.08682,-0.68607 -0.13165,-0.21302 -0.13165,-0.21302 1.89535,-2.5018 1.89535,-2.50179 3.54266,-3.64864 3.54266,-3.64863 2.14588,-1.79461 2.14588,-1.79461 2.24896,-1.5926 2.24896,-1.5926 2.38125,-1.47753 2.38125,-1.47752 2.66434,-1.32875 2.66434,-1.32876 1.70128,-0.71045 1.70129,-0.71046 2.11666,-0.78075 2.11667,-0.78075 2.18498,-0.64642 2.18498,-0.64642 2.44523,-0.52697 2.44523,-0.52697 2.24895,-0.388 2.24896,-0.38799 4.61648,-0.28833 4.61647,-0.28832 4.61654,0.28712 4.61654,0.28713 3.59928,0.65579 3.59928,0.6558 2.91041,0.80879 2.91042,0.80879 2.81295,1.01954 2.81296,1.01953 2.67061,1.22416 2.67061,1.22416 2.72424,1.52107 2.72425,1.52107 2.83245,1.9352 2.83245,1.9352 2.55845,2.1355 2.55846,2.1355 2.67516,2.66194 2.67517,2.66194 2.17577,2.68969 2.17577,2.6897 1.93753,2.86655 1.93753,2.86656 0.75402,1.32291 0.75401,1.32292 1.52515,3.04271 1.52514,3.04271 0.56684,1.4552 0.56684,1.45521 0.8855,2.51354 0.88551,2.51355 0.80541,3.0427 0.8054,3.04271 0.40575,2.38125 0.40576,2.38125 0.39834,3.57188 0.39834,3.57187 -0.003,3.43959 -0.003,3.43958 -0.37377,3.43958 -0.37377,3.43959 -0.42856,2.64583 -0.42858,2.64583 -0.66462,2.51355 -0.66462,2.51354 -0.54713,1.71979 -0.54713,1.71979 -1.04204,2.77813 -1.04204,2.77812 -2.06761,3.99898 -2.06762,3.99898 -1.8163,2.7143 -1.81631,2.71431 -0.42623,0.63966 -0.42622,0.63966 -2.25895,2.70122 -2.25895,2.70122 -1.54816,1.58997 -1.54816,1.58997 -2.51354,2.26399 -2.51354,2.264 -1.65061,1.2524 -1.65062,1.25239 -2.05355,1.37733 -2.05356,1.37733 -1.89834,1.12308 -1.89834,1.12309 h -0.18162 -0.18163 l 0.17723,-0.9447 z m -67.68341,-49.23077 -0.16826,-1.22756 0.004,-2.14588 0.004,-2.14589 0.39052,-1.65636 0.39053,-1.65636 0.82946,-1.65093 0.82947,-1.65093 1.22349,-1.53754 1.2235,-1.53753 2.6882,-2.16663 2.68819,-2.16663 2.07431,-1.45444 2.0743,-1.45445 1.14479,-1.04538 1.14479,-1.04537 0.37657,-0.72819 0.37656,-0.72819 v -1.09679 -1.0968 l -0.42345,-0.71683 -0.42344,-0.71683 -1.13631,-0.60281 -1.13632,-0.60281 h -1.21138 -1.21139 l -1.23115,0.61486 -1.23115,0.61487 -1.02479,1.16422 -1.02479,1.16423 v 0.22733 0.22733 h -0.3711 -0.37109 l -3.39922,-2.28294 -3.39922,-2.28294 -0.0983,-0.0864 -0.0983,-0.0863 0.67621,-1.13643 0.67621,-1.13643 1.20328,-1.36019 1.20328,-1.36019 1.51135,-1.00318 1.51136,-1.00318 1.89597,-0.73621 1.89597,-0.73621 2.08752,-0.1695 2.08752,-0.1695 2.06853,0.29236 2.06854,0.29236 2.01299,0.83801 2.01298,0.83801 1.80338,1.77147 1.80338,1.77147 0.70044,1.52996 0.70044,1.52996 0.2835,1.96787 0.2835,1.96786 -0.42406,2.05078 -0.42405,2.05078 -0.72795,1.56551 -0.72795,1.56551 -2.42412,2.38125 -2.42411,2.38125 -4.08647,2.73071 -4.08647,2.73072 -0.72761,0.94991 -0.7276,0.94991 v 0.48656 0.48656 h 8.59896 8.59896 v 4.23334 4.23333 H 150.5777 136.45846 l -0.16826,-1.22755 z m 50.89633,-3.66377 v -4.89132 l -9.06198,-0.0696 -9.06198,-0.0696 -0.0745,-2.94524 -0.0745,-2.94525 1.01702,-1.55267 1.01702,-1.55267 0.51271,-0.85327 0.51271,-0.85327 2.89021,-4.57069 2.89021,-4.57069 1.18757,-1.85208 1.18758,-1.85208 0.83414,-1.32292 0.83413,-1.32292 1.43808,-2.29479 1.43808,-2.2948 5.71405,-0.0865 5.71406,-0.0865 0.43468,0.085 0.43468,0.085 0.069,11.29208 0.069,11.29208 2.45424,0.0762 2.45423,0.0762 -0.073,4.02488 -0.073,4.02487 -2.44739,0.0761 -2.4474,0.0761 v 4.88487 4.88486 h -4.89479 -4.89479 z m -0.13918,-13.43108 0.10879,-0.33073 0.0858,-6.48229 0.0858,-6.48229 -0.82296,1.71979 -0.82297,1.71979 -3.20558,4.87136 -3.20559,4.87135 0.13713,0.22187 0.13712,0.22188 h 3.69686 3.69685 z"
       id="path3979"
       inkscape:connector-curvature="0" />
  </g>
</svg>
